<?xml version="1.0" encoding="UTF-8"?>
<svg version="1.1" xmlns="http://www.w3.org/2000/svg" width="1024" height="1024">
<path d="M0 0 C3.86752373 1.14980435 7.4280607 2.64810998 11.0625 4.375 C29.67142363 12.85406601 50.15528371 15.48332584 70.0480957 10.1862793 C79.75499751 7.65218978 79.75499751 7.65218978 83.4609375 8.6875 C85.59310094 10.27087875 87.20787849 12.03670119 89 14 C91.25151189 15.94451992 93.57023466 17.80661392 95.875 19.6875 C100.79110083 23.76546407 104.0377713 26.49746881 104.70881653 33.13975525 C104.80074532 34.16499046 104.80074532 34.16499046 104.89453125 35.2109375 C105.0436756 36.6887809 105.19343959 38.16656186 105.34375 39.64428711 C105.45783203 40.80370316 105.45783203 40.80370316 105.57421875 41.98654175 C107.35492562 59.83580193 110.1724007 76.98619798 116.30078125 93.91796875 C117 96 117 96 117 98 C117.66 98.33 118.32 98.66 119 99 C119.74609375 100.85546875 119.74609375 100.85546875 120.4375 103.1875 C121.63108532 107.01184479 123.1712462 110.42957592 125 114 C125 114.66 125 115.32 125 116 C125.66 116.33 126.32 116.66 127 117 C127.9275035 118.57439288 128.79202917 120.18611281 129.625 121.8125 C135.19252795 132.20969074 141.86295744 141.32305124 149.58203125 150.1875 C152 153 152 153 153.63671875 155.25 C155.06167006 157.26897094 155.06167006 157.26897094 158 159 C158.556875 159.721875 159.11375 160.44375 159.6875 161.1875 C162.77518868 164.94279704 166.2781606 167.88365388 170 171 C170.52045898 171.44875488 171.04091797 171.89750977 171.57714844 172.35986328 C186.83466378 185.49995635 203.4573796 196.5287552 221.95703125 204.546875 C225 206 225 206 226 208 C226.845625 208.268125 227.69125 208.53625 228.5625 208.8125 C238.32181779 212.18390069 245.31740086 218.87318859 250 228 C252.91034089 234.99628745 252.63178695 242.71351487 249.953125 249.75 C245.72777984 258.51367884 240.93878317 263.90561926 232 268 C217.35906817 272.46441197 205.91367613 267.03075493 192.81835938 260.81616211 C190.83430852 259.8892276 190.83430852 259.8892276 188 259 C187.34 258.67 186.68 258.34 186 258 C186 257.34 186 256.68 186 256 C185.31164062 255.74605469 184.62328125 255.49210938 183.9140625 255.23046875 C176.31177175 252.02038619 158.71857208 244.43714416 155 237 C153.67567327 236.31561639 152.34022876 235.65269373 151 235 C139.80355307 227.43287136 129.60444247 218.68127233 119.72265625 209.5 C117.58519128 207.53733489 115.42632712 205.65565074 113.1875 203.8125 C110.16565384 201.24609956 107.60103918 198.43508186 105.046875 195.40625 C103.55033415 193.6469577 102.01298365 191.92215392 100.453125 190.21875 C78.93785596 166.47596522 61.56718517 136.01243903 52.03515625 105.38671875 C51.52275391 104.20529297 51.52275391 104.20529297 51 103 C49.515 102.505 49.515 102.505 48 102 C44.01012179 167.6989432 60.38243653 230.14338668 103.34765625 280.8203125 C105 283 105 283 105 285 C105.66 285 106.32 285 107 285 C108.48046875 286.50390625 108.48046875 286.50390625 110.1875 288.5625 C113.18677493 292.10996174 116.33995132 295.36522872 119.71484375 298.5546875 C121 300 121 300 121 302 C121.66 302 122.32 302 123 302 C123 302.66 123 303.32 123 304 C123.82177734 304.3403125 123.82177734 304.3403125 124.66015625 304.6875 C127.70491832 306.39541328 129.91310968 308.58864208 132.4375 311 C147.59950075 325.18094386 164.91391534 336.01304207 182.95703125 346.140625 C206.78478034 359.57287767 206.78478034 359.57287767 212.11328125 372.75390625 C213.13722781 376.5023626 213.34351761 380.01878167 213.3125 383.875 C213.30831055 384.58317871 213.30412109 385.29135742 213.29980469 386.02099609 C213.12395568 394.14185287 210.80815856 399.44342015 206 406 C205.195625 407.2375 205.195625 407.2375 204.375 408.5 C197.87320789 415.3439917 189.25609578 418.79216321 180 420 C176.26402281 419.98521381 172.68600915 419.58352182 169 419 C167.89011719 418.85111328 167.89011719 418.85111328 166.7578125 418.69921875 C165.16915333 418.48548348 163.5839235 418.2463881 162 418 C162 417.34 162 416.68 162 416 C161.154375 415.73832031 160.30875 415.47664063 159.4375 415.20703125 C139.59606198 408.23998086 120.70335807 395.57491143 104 383 C102.96746094 382.24074219 101.93492187 381.48148438 100.87109375 380.69921875 C83.99615076 368.22081263 67.29361638 354.20653984 53.625 338.1875 C51.76459218 336.02115845 49.89313833 333.88541829 47.9453125 331.796875 C42.25789673 325.68442104 37.33828044 319.19008759 32.48046875 312.41796875 C30.98718668 310.33720334 29.46628879 308.33359277 27.86328125 306.33203125 C-4.69926462 265.57764994 -22.85665624 208.24014973 -28 157 C-28.09498779 156.12110107 -28.18997559 155.24220215 -28.2878418 154.33666992 C-29.20566027 144.92270781 -29.19964084 135.51178345 -29.1875 126.0625 C-29.18689575 125.19495087 -29.1862915 124.32740173 -29.18566895 123.43356323 C-29.16124615 110.51822346 -28.85090642 97.80104191 -27 85 C-26.87641113 84.08927734 -26.75282227 83.17855469 -26.62548828 82.24023438 C-17.69725992 17.69725992 -17.69725992 17.69725992 0 0 Z " fill="#EC757F" transform="translate(206,450)"/>
<path d="M0 0 C2.85425192 2.39407661 4.22268107 5.42595183 5.7890625 8.73046875 C6.13638428 9.44912109 6.48370605 10.16777344 6.84155273 10.90820312 C24.16257828 47.42387493 29.39416841 87.41433027 30.6640625 127.41796875 C30.68729584 128.12789978 30.71052917 128.83783081 30.73446655 129.5692749 C31.00435104 138.25239394 31.00435104 138.25239394 30.9140625 141.60546875 C30.5840625 141.93546875 30.2540625 142.26546875 29.9140625 142.60546875 C29.68529786 144.48046404 29.51628106 146.3627825 29.37109375 148.24609375 C27.05068035 175.89629561 21.43682154 202.16680101 12.9140625 228.60546875 C12.50389893 229.88164063 12.50389893 229.88164063 12.08544922 231.18359375 C8.77235567 241.3479544 4.71032014 251.0483502 -0.0859375 260.60546875 C-0.47910156 261.394375 -0.87226562 262.18328125 -1.27734375 262.99609375 C-13.67217844 287.70995375 -28.6708498 310.9316079 -47.0859375 331.60546875 C-47.95605469 332.58644531 -48.82617188 333.56742188 -49.72265625 334.578125 C-59.25182958 345.13672727 -69.17493131 355.46546543 -80.0859375 364.60546875 C-81.024375 365.42144531 -81.9628125 366.23742187 -82.9296875 367.078125 C-88.87104629 372.22374968 -94.95078503 377.1217269 -101.2734375 381.79296875 C-101.92127197 382.27475586 -102.56910645 382.75654297 -103.23657227 383.25292969 C-107.83863825 386.60546875 -107.83863825 386.60546875 -110.0859375 386.60546875 C-110.0859375 387.26546875 -110.0859375 387.92546875 -110.0859375 388.60546875 C-110.63121094 388.89679688 -111.17648437 389.188125 -111.73828125 389.48828125 C-115.62587321 391.60153637 -119.39117893 393.76336011 -123.0234375 396.29296875 C-133.14610866 403.14117585 -144.14690115 408.81455932 -155.1484375 414.10546875 C-155.81359375 414.43144043 -156.47875 414.75741211 -157.1640625 415.09326172 C-167.16649275 419.78751603 -177.10327217 420.77540454 -187.859375 417.8515625 C-197.98942763 414.12682007 -204.78517102 408.00358446 -210.0859375 398.60546875 C-213.44924688 390.48868211 -213.53688714 379.53970743 -210.6484375 371.23046875 C-206.01835313 361.58039817 -198.32874986 355.48262842 -189.0859375 350.60546875 C-171.77954082 341.29106256 -155.35509573 331.02178051 -140.0859375 318.60546875 C-139.55645508 318.1789502 -139.02697266 317.75243164 -138.48144531 317.31298828 C-122.73600304 304.53918136 -107.87873313 290.14291445 -96.0859375 273.60546875 C-95.6331543 272.97576172 -95.18037109 272.34605469 -94.71386719 271.69726562 C-78.05337276 250.62479426 -78.05337276 250.62479426 -69.0859375 226.60546875 C-68.4259375 226.60546875 -67.7659375 226.60546875 -67.0859375 226.60546875 C-66.48072266 224.77822266 -66.48072266 224.77822266 -65.86328125 222.9140625 C-64.58842567 219.08500947 -63.28223478 215.26773918 -61.96484375 211.453125 C-55.28293153 191.9725608 -50.61965671 173.03862148 -48.0859375 152.60546875 C-47.98659912 151.84113525 -47.88726074 151.07680176 -47.78491211 150.28930664 C-46.6990493 140.53758894 -46.97763944 130.71443265 -47.0234375 120.91796875 C-47.02846259 119.04101682 -47.03302371 117.16406359 -47.03710938 115.28710938 C-47.04803492 110.72652988 -47.06524393 106.16601396 -47.0859375 101.60546875 C-48.4059375 101.60546875 -49.7259375 101.60546875 -51.0859375 101.60546875 C-51.26189453 102.2193042 -51.43785156 102.83313965 -51.61914062 103.46557617 C-59.49768978 130.40538017 -73.10666384 154.38834848 -89.5234375 176.98046875 C-90.13936768 177.8327002 -90.75529785 178.68493164 -91.38989258 179.56298828 C-91.96892334 180.34786621 -92.5479541 181.13274414 -93.14453125 181.94140625 C-93.66329834 182.6482959 -94.18206543 183.35518555 -94.71655273 184.08349609 C-95.16844971 184.58574707 -95.62034668 185.08799805 -96.0859375 185.60546875 C-96.7459375 185.60546875 -97.4059375 185.60546875 -98.0859375 185.60546875 C-98.41658203 186.41177734 -98.41658203 186.41177734 -98.75390625 187.234375 C-100.53781752 190.40984169 -102.91617128 192.90989031 -105.3984375 195.54296875 C-106.19205688 196.39133301 -106.19205688 196.39133301 -107.00170898 197.25683594 C-116.19400616 207.02559235 -125.45433343 216.38279776 -136.0859375 224.60546875 C-137.06965332 225.37189697 -137.06965332 225.37189697 -138.07324219 226.15380859 C-153.20175985 237.92916859 -153.20175985 237.92916859 -160.51953125 242.5546875 C-162.25512578 243.6457909 -162.25512578 243.6457909 -164.0859375 245.60546875 C-166.58513647 246.90436633 -169.12667435 248.0914703 -171.67578125 249.2890625 C-174.07997974 250.45020349 -174.07997974 250.45020349 -175.58984375 252.140625 C-177.54208129 254.05208473 -179.54476441 254.60946779 -182.0859375 255.60546875 C-183.74533476 256.41806793 -185.3948254 257.25113238 -187.03515625 258.1015625 C-188.43217773 258.81602539 -188.43217773 258.81602539 -189.85742188 259.54492188 C-191.78439774 260.53486862 -193.70893393 261.52958036 -195.63085938 262.52929688 C-206.74512855 268.18955355 -216.36324339 271.39175514 -228.76953125 268.37109375 C-232.81631431 267.03353982 -236.67402099 265.17202202 -240.0859375 262.60546875 C-240.5809375 261.12046875 -240.5809375 261.12046875 -241.0859375 259.60546875 C-242.0759375 259.27546875 -243.0659375 258.94546875 -244.0859375 258.60546875 C-249.5215128 252.86343668 -250.8645166 245.26294138 -251.0859375 237.60546875 C-249.90050304 228.14893475 -244.48424969 220.17691587 -237.28125 214.16748047 C-232.8474045 211.01270472 -227.86653861 208.86039154 -222.9609375 206.54296875 C-205.88176968 198.22992929 -189.73228028 188.74800229 -175.0859375 176.60546875 C-174.52358398 176.14317871 -173.96123047 175.68088867 -173.38183594 175.20458984 C-160.44280597 164.528999 -148.83451918 153.29694811 -139.0859375 139.60546875 C-138.66570312 139.01894531 -138.24546875 138.43242188 -137.8125 137.828125 C-119.30073529 111.74336564 -106.48444034 79.02773842 -105.921875 46.80078125 C-105.45298927 27.49634875 -105.45298927 27.49634875 -101.38671875 22.68359375 C-98.26734923 19.77841782 -94.76009597 17.74131174 -91.0859375 15.60546875 C-89.48504072 14.20868016 -87.89921449 12.79423695 -86.3359375 11.35546875 C-83.25427774 8.99492864 -81.41179651 8.19189034 -77.5234375 8.54296875 C-76.03329174 8.84765491 -74.55203013 9.20057313 -73.0859375 9.60546875 C-51.27205932 15.52109673 -27.28853317 12.68580265 -7.3359375 2.16796875 C-6.41296875 1.63300781 -5.49 1.09804688 -4.5390625 0.546875 C-2.0859375 -0.39453125 -2.0859375 -0.39453125 0 0 Z " fill="#FCA5A9" transform="translate(817.0859375,450.39453125)"/>
<path d="M0 0 C1.52185913 0.01353516 1.52185913 0.01353516 3.07446289 0.02734375 C21.67062016 0.45108719 39.01548333 7.02427734 53 19.4375 C53.85335937 20.17226563 54.70671875 20.90703125 55.5859375 21.6640625 C60.13713027 25.6546978 64.30782234 29.63766905 68 34.4375 C72.01159593 32.88672102 74.28059854 30.05592639 77 26.875 C90.43337057 11.76728577 108.66765913 1.81382458 129 0.4375 C132.68914277 0.33324526 136.37230201 0.34161616 140.0625 0.375 C141.02349609 0.37951172 141.98449219 0.38402344 142.97460938 0.38867188 C145.31647422 0.40032294 147.65820181 0.41667975 150 0.4375 C150 1.0975 150 1.7575 150 2.4375 C150.99 2.56125 151.98 2.685 153 2.8125 C157.08880024 3.38944727 161.00861887 4.38713654 165 5.4375 C165 6.0975 165 6.7575 165 7.4375 C166.08667969 7.84742188 166.08667969 7.84742188 167.1953125 8.265625 C183.67269596 15.15032561 195.95182856 28.98352526 202.85546875 45.2578125 C204.64711703 50.2352927 205.94141235 55.25879785 207 60.4375 C207.18433594 61.21480469 207.36867188 61.99210937 207.55859375 62.79296875 C211.22138654 84.73731137 204.15072596 107.29431074 192 125.4375 C189.85598811 128.36684283 187.64552132 131.24157837 185.37597656 134.07470703 C182.9649363 137.07286174 182.9649363 137.07286174 181.08911133 140.4140625 C179.83144798 142.75064932 178.48593116 143.94901087 176.4375 145.625 C171.69036672 149.64378251 167.35825558 154.00487146 163 158.4375 C158.10123692 163.41985972 153.17166039 168.26497404 147.87109375 172.8203125 C145.01496865 175.28886321 142.26135298 177.86407243 139.5 180.4375 C130.01333942 189.22812842 120.15696984 197.55779452 110.27246094 205.89453125 C108.57698283 207.3249403 106.88211498 208.75606854 105.1875 210.1875 C104.63876221 210.65051514 104.09002441 211.11353027 103.5246582 211.59057617 C100.64801671 214.02311072 97.80679077 216.4874221 95 219 C91.07020459 222.46992573 86.91936131 225.63558762 82.7421875 228.79907227 C80.03589554 230.85159241 77.40709033 232.94500434 74.8515625 235.1796875 C70.61402884 238.53488539 70.61402884 238.53488539 68 238.4375 C65.84343864 237.12574544 64.05651048 235.8426336 62.125 234.25 C61.27832764 233.57529663 61.27832764 233.57529663 60.41455078 232.88696289 C54.95070786 228.49468289 49.64492998 223.91083996 44.34765625 219.3203125 C39.64920608 215.25628052 34.8229036 211.35214876 30 207.4375 C27.10342173 205.05428683 24.20714662 202.67071531 21.3125 200.28515625 C18.94099979 198.33604558 18.94099979 198.33604558 16 196.4375 C14.32033003 194.78393889 12.65600222 193.11476331 11 191.4375 C8.74892155 189.29117127 6.46936308 187.17602384 4.1875 185.0625 C3.5702002 184.49031738 2.95290039 183.91813477 2.31689453 183.32861328 C-5.1569517 176.25515953 -5.1569517 176.25515953 -13.2109375 169.8828125 C-14.09652344 169.16738281 -14.09652344 169.16738281 -15 168.4375 C-15 167.7775 -15 167.1175 -15 166.4375 C-15.66 166.4375 -16.32 166.4375 -17 166.4375 C-17 165.7775 -17 165.1175 -17 164.4375 C-17.55993652 164.20135986 -18.11987305 163.96521973 -18.69677734 163.72192383 C-21.54749113 162.13218403 -23.53084086 160.18354076 -25.8515625 157.88671875 C-26.78073486 156.96713379 -27.70990723 156.04754883 -28.66723633 155.10009766 C-29.65414886 154.10938496 -30.64005227 153.11766609 -31.625 152.125 C-32.12276947 151.62474304 -32.62053894 151.12448608 -33.13339233 150.60906982 C-54.09253947 129.48683132 -69.58801028 104.90244806 -70.375 74.3125 C-69.84324923 53.94413359 -61.66167106 35.78217687 -47.79296875 21.07421875 C-39.38970185 13.14106468 -29.6439409 7.76857336 -19 3.4375 C-18.41299316 3.16897217 -17.82598633 2.90044434 -17.22119141 2.6237793 C-11.49122884 0.16818512 -6.18390243 -0.06591219 0 0 Z " fill="#FEB3B6" transform="translate(443,434.5625)"/>
<path d="M0 0 C2.43918766 3.03178856 4.8334317 6.08942986 7.1875 9.1875 C17.21236455 22.02188073 28.29134126 32.65747533 43 40 C43.66 40 44.32 40 45 40 C45 40.66 45 41.32 45 42 C48.32812686 43.01793034 51.66209504 44.01460784 55 45 C55.969375 45.28617187 56.93875 45.57234375 57.9375 45.8671875 C58.88625 46.13789063 59.835 46.40859375 60.8125 46.6875 C61.68519531 46.93886719 62.55789063 47.19023437 63.45703125 47.44921875 C66.04730985 48.01024683 68.36056729 48.0230317 71 48 C71.33 48.33 71.66 48.66 72 49 C99.32725994 52.21497176 123.59034176 45.5971289 145.56640625 29.05078125 C148.16530153 27.05409208 148.16530153 27.05409208 150 24 C150.86625 23.319375 151.7325 22.63875 152.625 21.9375 C159.02535316 16.7421033 163.90882348 9.70639824 167.796875 2.49609375 C169.34891316 0.56612422 170.60054575 0.36798353 173 0 C173 0.66 173 1.32 173 2 C173.57540527 2.09071777 174.15081055 2.18143555 174.74365234 2.27490234 C182.05690888 3.56735002 188.72483982 5.91847604 195.625 8.625 C196.7598584 9.06505371 197.8947168 9.50510742 199.06396484 9.95849609 C207.98608388 13.47434604 216.56788671 17.44003541 225 22 C225.33 21.34 225.66 20.68 226 20 C226 20.99 226 21.98 226 23 C227.65 23.33 229.3 23.66 231 24 C231 24.66 231 25.32 231 26 C231.78890625 26.20753906 232.5778125 26.41507812 233.390625 26.62890625 C238.25102208 28.47522592 242.38306304 31.14252741 246.75 33.9375 C247.61238281 34.47568359 248.47476562 35.01386719 249.36328125 35.56835938 C255.74569818 39.61854727 255.74569818 39.61854727 258 43 C257.54560547 43.76957031 257.54560547 43.76957031 257.08203125 44.5546875 C245.5092896 65.70609839 244.50483259 90.28517907 250.125 113.2890625 C251 117 251 117 251 120 C251.66 120.33 252.32 120.66 253 121 C253.89454156 124.07722297 254.5393369 127.18129179 255.21875 130.3125 C255.60546875 131.6428125 255.60546875 131.6428125 256 133 C256.66 133.33 257.32 133.66 258 134 C258.33 134.99 258.66 135.98 259 137 C259.66 137.66 260.32 138.32 261 139 C261.75214998 140.5207704 262.45667412 142.06557295 263.125 143.625 C263.65480469 144.85089844 263.65480469 144.85089844 264.1953125 146.1015625 C264.46085937 146.72804688 264.72640625 147.35453125 265 148 C264.01 148 263.02 148 262 148 C262 148.66 262 149.32 262 150 C258.5465583 148.51891127 256.35078674 146.57178301 253.734375 143.89453125 C252.92613281 143.07533203 252.11789062 142.25613281 251.28515625 141.41210938 C250.44855469 140.55423828 249.61195313 139.69636719 248.75 138.8125 C240.59400482 130.48365406 232.43839279 122.75396951 222.875 116.0625 C222.13781738 115.54526367 221.40063477 115.02802734 220.64111328 114.49511719 C213.98310966 109.88429546 207.12584894 105.85443647 200 102 C198.83243485 101.34012891 197.66577938 100.67864587 196.5 100.015625 C189.40726442 96.03775999 182.16496741 92.67393331 174.625 89.625 C173.80499512 89.29113281 172.98499023 88.95726562 172.14013672 88.61328125 C162.96420684 84.59751527 162.96420684 84.59751527 153.41796875 84.87890625 C152.31388672 85.71228516 152.31388672 85.71228516 151.1875 86.5625 C149.80884766 87.54476562 149.80884766 87.54476562 148.40234375 88.546875 C147.87882324 88.93037109 147.35530273 89.31386719 146.81591797 89.70898438 C143.0549773 92.38280183 139.13106541 94.8180493 135.25 97.3125 C127.40334514 102.40816544 119.60102375 107.56692098 111.82958984 112.77636719 C109.88537897 114.07665874 107.93729002 115.37097465 105.98828125 116.6640625 C105.32094971 117.1072583 104.65361816 117.5504541 103.96606445 118.00708008 C102.70604691 118.84370168 101.44551395 119.67954785 100.18432617 120.5144043 C99.31964722 121.08928589 99.31964722 121.08928589 98.4375 121.67578125 C97.86902344 122.04912598 97.30054688 122.4224707 96.71484375 122.80712891 C94.95910361 123.993926 94.95910361 123.993926 93.25390625 125.43896484 C90.09383664 127.99112574 88.66651222 128.98444805 84.484375 129.08203125 C80.55506064 127.86182937 77.54491222 126.07173067 74.25 123.6875 C72.92478704 122.76720859 71.59788347 121.84934811 70.26953125 120.93359375 C69.57424316 120.45132324 68.87895508 119.96905273 68.16259766 119.47216797 C64.48266768 116.96709033 60.71008999 114.6122429 56.9375 112.25 C55.33323172 111.24104697 53.72906759 110.23192831 52.125 109.22265625 C50.88556641 108.44365967 50.88556641 108.44365967 49.62109375 107.64892578 C44.88739631 104.67096448 40.16086898 101.68181074 35.4375 98.6875 C34.54603271 98.12514648 33.65456543 97.56279297 32.73608398 96.98339844 C31.87313721 96.43586914 31.01019043 95.88833984 30.12109375 95.32421875 C29.27401855 94.78716309 28.42694336 94.25010742 27.55419922 93.69677734 C24.88272198 91.92209117 22.34856482 90.00858015 19.78515625 88.08203125 C16.70191583 85.92149919 15.18142334 85.03096029 11.40625 84.38671875 C7.23093675 85.13846666 3.45455402 86.29209938 -0.5 87.8125 C-1.31315674 88.12018311 -2.12631348 88.42786621 -2.96411133 88.74487305 C-32.99772217 100.41531909 -57.633845 116.75814296 -80.5 139.3125 C-81.11222412 139.9115918 -81.72444824 140.51068359 -82.35522461 141.12792969 C-82.92893799 141.7005957 -83.50265137 142.27326172 -84.09375 142.86328125 C-84.60615234 143.37157471 -85.11855469 143.87986816 -85.64648438 144.40356445 C-87.13295654 146.15681869 -88.05324283 147.91301053 -89 150 C-90.65 149.34 -92.3 148.68 -94 148 C-92.53041333 143.11400309 -90.46852404 138.8139492 -88.125 134.3125 C-76.68699904 111.76285757 -72.46344506 85.6299197 -80.27587891 61.08691406 C-82.52948006 54.59204465 -85.20338955 48.27666222 -88 42 C-52.72887324 15 -52.72887324 15 -38 15 C-37.67 14.34 -37.34 13.68 -37 13 C-34.75857207 12.01095462 -32.55131918 11.14046742 -30.25 10.3125 C-29.55712891 10.05774902 -28.86425781 9.80299805 -28.15039062 9.54052734 C-18.83833399 6.15562332 -9.41653121 3.07932657 0 0 Z " fill="#FEB3B5" transform="translate(427,280)"/>
<path d="M0 0 C0 0.66 0 1.32 0 2 C0.58394531 2.27199219 1.16789063 2.54398438 1.76953125 2.82421875 C14.77238474 9.67861262 24.07737572 26.53709581 28.68457031 40.00048828 C35.06090976 60.72114282 32.8486589 82.67621574 23 102 C12.37239786 120.40852513 -4.84443755 135.93041243 -25.58984375 141.640625 C-31.989594 143.16399871 -38.12547113 143.53942342 -44.6875 143.5 C-45.8209082 143.49355469 -46.95431641 143.48710937 -48.12207031 143.48046875 C-67.03201198 143.0720699 -82.42060841 135.95329 -97 124 C-97.66 124.33 -98.32 124.66 -99 125 C-99.11794922 124.16855469 -99.11794922 124.16855469 -99.23828125 123.3203125 C-100.26381623 120.19637518 -102.03292126 118.35078059 -104.1875 115.875 C-118.0036143 99.32193754 -124.81201399 78.57276116 -123 57 C-119.54149804 33.91825867 -108.57436607 14.28923201 -90 0 C-60.87642073 -20.16374258 -29.52649633 -16.76873032 0 0 Z " fill="#FEB5B8" transform="translate(557,168)"/>
<path d="M0 0 C10.7714281 -0.39835163 26.21132282 1.24114229 35.265625 7.27734375 C35.93078125 7.71820313 36.5959375 8.1590625 37.28125 8.61328125 C38.03921875 9.12117188 38.7971875 9.6290625 39.578125 10.15234375 C40.52171875 10.74273437 41.4653125 11.333125 42.4375 11.94140625 C61.35301086 23.99164286 72.58492219 41.36149455 77.578125 63.15234375 C81.15263234 84.22312384 76.35380612 103.47697532 64.578125 121.15234375 C51.80938867 138.89066275 33.78682484 149.46330846 12.5703125 153.76171875 C-7.5091593 156.38305972 -26.75627104 150.95051625 -43.046875 138.96484375 C-44.186318 138.04495196 -45.30983019 137.1051751 -46.421875 136.15234375 C-47.37835938 135.40339844 -48.33484375 134.65445313 -49.3203125 133.8828125 C-52.57440272 131.16298344 -54.99675451 128.11423841 -57.421875 124.65234375 C-58.06588257 123.74029175 -58.06588257 123.74029175 -58.72290039 122.80981445 C-62.75700507 116.93601827 -65.7832956 110.77070736 -68.421875 104.15234375 C-68.73769531 103.37503906 -69.05351562 102.59773438 -69.37890625 101.796875 C-75.90454438 84.14872065 -74.52405765 64.36573347 -67.421875 47.15234375 C-58.74641816 28.56523265 -44.71651881 13.01556047 -25.38183594 5.34277344 C-16.98599021 2.29080712 -8.89339205 0.55942305 0 0 Z " fill="#EC747E" transform="translate(254.421875,291.84765625)"/>
<path d="M0 0 C15.16671639 14.65259041 23.67338879 33.19017479 24.35400391 54.34716797 C24.54744933 74.18207163 18.45410292 91.64526199 6 107 C4.824375 108.5778125 4.824375 108.5778125 3.625 110.1875 C-9.47248736 124.22052217 -27.3444662 133.10638007 -46.55859375 134.203125 C-68.68987456 134.4705725 -86.29500159 127.92219867 -103.296875 113.640625 C-118.24586387 99.03727749 -126.46480293 78.72337058 -127.03125 57.96875 C-126.84785175 34.67717195 -118.38615102 16.19756852 -101.9140625 -0.05859375 C-91.39755084 -9.81865458 -78.26363635 -16.78404221 -64 -19 C-62.88625 -19.18369141 -62.88625 -19.18369141 -61.75 -19.37109375 C-38.89078672 -22.41648236 -17.26299364 -14.83684318 0 0 Z " fill="#FCA6A9" transform="translate(818,312)"/>
<path d="M0 0 C0.33 0 0.66 0 1 0 C1.18175781 1.0415625 1.36351562 2.083125 1.55078125 3.15625 C2.22111495 6.98666387 2.8992552 10.81565422 3.58105469 14.64404297 C3.84618165 16.13499589 4.11001814 17.62617936 4.37207031 19.11767578 C6.55839432 31.52190247 9.16346431 43.77811697 13.22753906 55.72045898 C13.96491601 57.89646676 14.6686031 60.08081721 15.3671875 62.26953125 C24.58303416 90.41177738 38.31124484 118.18645623 56 142 C55.67 142.66 55.34 143.32 55 144 C23.31143114 114.47415246 6.29789963 52.46771055 0 11 C-0.06388388 9.04259807 -0.08638169 7.08329853 -0.0625 5.125 C-0.05347656 4.15820312 -0.04445312 3.19140625 -0.03515625 2.1953125 C-0.02355469 1.47085938 -0.01195312 0.74640625 0 0 Z " fill="#E35452" transform="translate(180,613)"/>
<path d="M0 0 C0.33 0 0.66 0 1 0 C1.7757128 4.90386772 2.18672676 9.67681869 2.3515625 14.6484375 C2.37471527 15.34643463 2.39786804 16.04443176 2.42172241 16.76358032 C2.46897526 18.22399813 2.51425088 19.68448115 2.55761719 21.14501953 C2.62545079 23.38991858 2.70302536 25.63434791 2.78125 27.87890625 C2.82610555 29.30206502 2.87039704 30.72524171 2.9140625 32.1484375 C2.9548291 33.43927246 2.9955957 34.73010742 3.03759766 36.06005859 C3 39 3 39 2 40 C1.77123536 41.87499529 1.60221856 43.75731375 1.45703125 45.640625 C0.32407852 59.10967264 -1.15529123 72.25504506 -3.9375 85.5 C-4.17815186 86.64758789 -4.41880371 87.79517578 -4.66674805 88.97753906 C-6.4399917 97.09220334 -8.63977653 105.03997177 -11 113 C-12.35137068 109.25939691 -11.63970053 106.6162649 -10.671875 102.8203125 C-10.36781738 101.59151367 -10.06375977 100.36271484 -9.75048828 99.09667969 C-9.58679749 98.4484021 -9.42310669 97.80012451 -9.25445557 97.13220215 C-5.91614276 83.8492312 -3.45802158 70.62582297 -2 57 C-1.91511826 56.25616058 -1.83023651 55.51232117 -1.74278259 54.74594116 C-1.05210154 48.40640341 -0.79268286 42.11589691 -0.68359375 35.7421875 C-0.6524221 34.19859055 -0.6524221 34.19859055 -0.62062073 32.62380981 C-0.55584737 29.37426675 -0.49658018 26.12465105 -0.4375 22.875 C-0.3942459 20.65624284 -0.35062955 18.43749271 -0.30664062 16.21875 C-0.20024136 10.81257417 -0.09834841 5.40632797 0 0 Z " fill="#F58E89" transform="translate(845,553)"/>
<path d="M0 0 C0.66 0.33 1.32 0.66 2 1 C1.40461426 1.58491211 0.80922852 2.16982422 0.19580078 2.77246094 C-2.01854113 4.95264291 -4.22828867 7.13735138 -6.43505859 9.32519531 C-7.85817009 10.73334701 -9.2864792 12.13623955 -10.71484375 13.5390625 C-12.05869141 14.87324219 -12.05869141 14.87324219 -13.4296875 16.234375 C-14.67081299 17.45979004 -14.67081299 17.45979004 -15.93701172 18.70996094 C-17.79031058 20.76723234 -18.93666145 22.46630336 -20 25 C-22.475 24.01 -22.475 24.01 -25 23 C-23.6077541 18.37324343 -21.70479016 14.35313769 -19.375 10.125 C-18.74335938 8.97257812 -18.11171875 7.82015625 -17.4609375 6.6328125 C-16.97882813 5.76398438 -16.49671875 4.89515625 -16 4 C-15 7 -15 7 -15.77734375 9.04296875 C-16.16019531 9.75066406 -16.54304688 10.45835937 -16.9375 11.1875 C-17.31777344 11.90292969 -17.69804687 12.61835938 -18.08984375 13.35546875 C-18.39019531 13.89816406 -18.69054687 14.44085938 -19 15 C-15.15098514 15.40068168 -15.15098514 15.40068168 -13.16894531 13.62304688 C-12.56147461 12.99462891 -11.95400391 12.36621094 -11.328125 11.71875 C-10.66425781 11.04199219 -10.00039063 10.36523438 -9.31640625 9.66796875 C-8.63449219 8.95253906 -7.95257813 8.23710937 -7.25 7.5 C-6.55261719 6.78457031 -5.85523438 6.06914062 -5.13671875 5.33203125 C-3.41516979 3.56331656 -1.7036256 1.78595695 0 0 Z " fill="#FBA09D" transform="translate(358,405)"/>
<path d="M0 0 C4.41915762 1.39481758 8.59852097 3.07360959 12.8125 5 C13.95332031 5.515625 15.09414063 6.03125 16.26953125 6.5625 C19 8 19 8 20 10 C20.845625 10.268125 21.69125 10.53625 22.5625 10.8125 C31.46992721 13.88961122 38.35177477 19.7762169 43 28 C42.505 29.485 42.505 29.485 42 31 C41.16121545 29.71186658 40.32913217 28.41936744 39.5 27.125 C39.0359375 26.40570312 38.571875 25.68640625 38.09375 24.9453125 C37 23 37 23 37 21 C36.46503906 20.7421875 35.93007813 20.484375 35.37890625 20.21875 C32.50281512 18.7452846 29.73103366 17.12484437 26.9375 15.5 C18.10181119 10.39868553 9.05137683 5.7042767 0 1 C0 0.67 0 0.34 0 0 Z " fill="#EE6865" transform="translate(412,648)"/>
<path d="M0 0 C1.64574566 -0.02688151 3.29161413 -0.04634123 4.9375 -0.0625 C5.85402344 -0.07410156 6.77054687 -0.08570313 7.71484375 -0.09765625 C10 0 10 0 11 1 C21.50442725 2.09008207 31.46502845 2.21926907 41.8984375 0.47265625 C44.66452723 0.05112368 47.20976998 -0.08882755 50 0 C42.57764751 4.03671802 34.10222307 4.3623115 25.8125 4.3125 C24.90991455 4.31121094 24.0073291 4.30992187 23.07739258 4.30859375 C15.11006646 4.19571213 7.70910253 2.98944581 0 1 C0 0.67 0 0.34 0 0 Z " fill="#FC9F9B" transform="translate(488,328)"/>
<path d="M0 0 C3.87339779 1.60404238 6.42640842 4.12373342 9.4375 7 C14.34879706 11.62888783 19.47078636 15.81700124 24.89819336 19.82617188 C28.90385047 22.80770095 28.90385047 22.80770095 30 25 C25.11067969 23.48071968 21.9382234 20.64557198 18.1875 17.3125 C17.57092529 16.77302734 16.95435059 16.23355469 16.3190918 15.67773438 C15.09684927 14.60756959 13.87681059 13.53488163 12.65917969 12.45947266 C9.98468192 10.1068906 7.26281239 7.80913516 4.55078125 5.5 C2.80037865 3.80691537 1.4123131 1.97979843 0 0 Z " fill="#E75C5A" transform="translate(329,754)"/>
<path d="M0 0 C0.66 0.99 1.32 1.98 2 3 C1.32066406 3.350625 0.64132812 3.70125 -0.05859375 4.0625 C-3.90397637 6.59544792 -6.87355214 9.69945587 -10.0625 13 C-17.43383015 20.58105187 -17.43383015 20.58105187 -21 23 C-21.66 22.67 -22.32 22.34 -23 22 C-22.55197021 21.58226318 -22.10394043 21.16452637 -21.64233398 20.73413086 C-19.57285496 18.80320328 -17.50517147 16.87036294 -15.4375 14.9375 C-14.73302734 14.28072266 -14.02855469 13.62394531 -13.30273438 12.94726562 C-8.77983607 8.71616721 -4.34839115 4.4103022 0 0 Z " fill="#FB8F86" transform="translate(668,603)"/>
<path d="M0 0 C0 0.99 0 1.98 0 3 C-0.47993408 3.45608643 -0.95986816 3.91217285 -1.4543457 4.38208008 C-3.50666786 6.53035664 -3.49936869 7.95352574 -3.73046875 10.88671875 C-3.81103516 11.82451172 -3.89160156 12.76230469 -3.97460938 13.72851562 C-4.04486328 14.70498047 -4.11511719 15.68144531 -4.1875 16.6875 C-4.26935547 17.67556641 -4.35121094 18.66363281 -4.43554688 19.68164062 C-4.63583026 22.12038537 -4.82347846 24.55943916 -5 27 C-5.33 27 -5.66 27 -6 27 C-6.33919598 5.40452261 -6.33919598 5.40452261 -2.4375 1.3125 C-1.633125 0.879375 -0.82875 0.44625 0 0 Z " fill="#FDB2B6" transform="translate(720,473)"/>
<path d="M0 0 C6.01373867 6.01373867 8.51712812 14.63022078 9 23 C6.99006295 19.98509443 6.27376659 17.7850073 5.375 14.3125 C5.11460937 13.31863281 4.85421875 12.32476562 4.5859375 11.30078125 C4.39257812 10.54152344 4.19921875 9.78226562 4 9 C3.34 9 2.68 9 2 9 C1.34 6.03 0.68 3.06 0 0 Z " fill="#F29492" transform="translate(831,330)"/>
<path d="M0 0 C4.53766564 2.36423164 7.48058779 5.41073969 10.8125 9.1875 C11.56563477 10.02571289 11.56563477 10.02571289 12.33398438 10.88085938 C13.56165889 12.24883954 14.7816269 13.62372916 16 15 C15.67 15.66 15.34 16.32 15 17 C11.02745649 13.15159847 7.38992682 9.07173193 3.76953125 4.890625 C2.13136012 2.92091997 2.13136012 2.92091997 0 2 C0 1.34 0 0.68 0 0 Z " fill="#FCA29F" transform="translate(496,455)"/>
<path d="M0 0 C0.66 0.33 1.32 0.66 2 1 C-4.435 6.94 -4.435 6.94 -11 13 C-11.66 12.67 -12.32 12.34 -13 12 C-11.3989569 10.3719224 -9.79405264 8.74764115 -8.1875 7.125 C-7.29417969 6.22007812 -6.40085937 5.31515625 -5.48046875 4.3828125 C-3 2 -3 2 0 0 Z " fill="#FCB2B5" transform="translate(724,307)"/>
<path d="M0 0 C0.86625 0.268125 1.7325 0.53625 2.625 0.8125 C2.625 1.1425 2.625 1.4725 2.625 1.8125 C1.18945975 2.31809908 -0.2485202 2.8167749 -1.6875 3.3125 C-2.88826172 3.73015625 -2.88826172 3.73015625 -4.11328125 4.15625 C-6.375 4.8125 -6.375 4.8125 -9.375 4.8125 C-4.20576923 -0.23365385 -4.20576923 -0.23365385 0 0 Z " fill="#FCAFB3" transform="translate(739.375,460.1875)"/>
<path d="M0 0 C3.26265612 2.17510408 3.73936409 3.12949953 5.1875 6.625 C5.53167969 7.44226563 5.87585938 8.25953125 6.23046875 9.1015625 C6.48441406 9.72804688 6.73835937 10.35453125 7 11 C6.01 11 5.02 11 4 11 C3.32880451 9.5437455 2.66318193 8.08492133 2 6.625 C1.62875 5.81289063 1.2575 5.00078125 0.875 4.1640625 C0 2 0 2 0 0 Z " fill="#FCA4A3" transform="translate(685,417)"/>
<path d="M0 0 C2.64 0 5.28 0 8 0 C8 0.33 8 0.66 8 1 C5.36 1 2.72 1 0 1 C0 0.67 0 0.34 0 0 Z " fill="#FBA7AA" transform="translate(760,447)"/>
<path d="M0 0 C1.65 0 3.3 0 5 0 C5 0.33 5 0.66 5 1 C3.35 1 1.7 1 0 1 C0 0.67 0 0.34 0 0 Z " fill="#FBA8AA" transform="translate(769,447)"/>
<path d="M0 0 C0.99 0.33 1.98 0.66 3 1 C1.68 1.33 0.36 1.66 -1 2 C-0.67 1.34 -0.34 0.68 0 0 Z " fill="#FEBFBF" transform="translate(544,440)"/>
<path d="M0 0 C0.66 0 1.32 0 2 0 C2 0.66 2 1.32 2 2 C1.34 2 0.68 2 0 2 C0 1.34 0 0.68 0 0 Z " fill="#FEA9AD" transform="translate(755,446)"/>
<path d="M0 0 C0.66 0 1.32 0 2 0 C2 0.66 2 1.32 2 2 C1.34 2 0.68 2 0 2 C0 1.34 0 0.68 0 0 Z " fill="#FEABAD" transform="translate(752,446)"/>
<path d="M0 0 C0.99 0.33 1.98 0.66 3 1 C2.01 1 1.02 1 0 1 C0 0.67 0 0.34 0 0 Z " fill="#FEB8BA" transform="translate(586,365)"/>
<path d="M0 0 C0.66 0 1.32 0 2 0 C1.67 0.66 1.34 1.32 1 2 C0.67 1.34 0.34 0.68 0 0 Z " fill="#EB7C84" transform="translate(365,694)"/>
<path d="" fill="#E07078" transform="translate(0,0)"/>
<path d="M0 0 C0.66 0 1.32 0 2 0 C1.67 0.66 1.34 1.32 1 2 C0.67 1.34 0.34 0.68 0 0 Z " fill="#EB777F" transform="translate(353,684)"/>
<path d="" fill="#F3A5A8" transform="translate(0,0)"/>
<path d="" fill="#FEA6AA" transform="translate(0,0)"/>
<path d="" fill="#FBAFB3" transform="translate(0,0)"/>
<path d="" fill="#FEA7AB" transform="translate(0,0)"/>
<path d="" fill="#E67880" transform="translate(0,0)"/>
<path d="" fill="#E06A72" transform="translate(0,0)"/>
<path d="M0 0 C0.66 0 1.32 0 2 0 C1.67 0.66 1.34 1.32 1 2 C0.67 1.34 0.34 0.68 0 0 Z " fill="#FEB8BA" transform="translate(412,374)"/>
<path d="" fill="#FEBABB" transform="translate(0,0)"/>
<path d="" fill="#FEADB2" transform="translate(0,0)"/>
<path d="" fill="#FEB4B6" transform="translate(0,0)"/>
<path d="" fill="#EC8890" transform="translate(0,0)"/>
<path d="M0 0 C0.99 0.495 0.99 0.495 2 1 C1.01 1.495 1.01 1.495 0 2 C0 1.34 0 0.68 0 0 Z " fill="#FAACAC" transform="translate(722,304)"/>
<path d="M0 0 C3 1 3 1 3 1 Z " fill="#FEBCBD" transform="translate(547,303)"/>
<path d="M0 0 C2 1 2 1 2 1 Z " fill="#EF9B9F" transform="translate(667,862)"/>
<path d="M0 0 C2 1 2 1 2 1 Z " fill="#F09EA0" transform="translate(694,847)"/>
<path d="M0 0 C2 1 2 1 2 1 Z " fill="#EF9D9D" transform="translate(699,844)"/>
<path d="M0 0 C2 1 2 1 2 1 Z " fill="#DF6D76" transform="translate(324,844)"/>
<path d="" fill="#ED999B" transform="translate(0,0)"/>
<path d="M0 0 C2 1 2 1 2 1 Z " fill="#F9A8AB" transform="translate(640,792)"/>
<path d="" fill="#FBA9AC" transform="translate(0,0)"/>
<path d="M0 0 C2 1 2 1 2 1 Z " fill="#FCABAC" transform="translate(675,768)"/>
<path d="" fill="#F3A2A4" transform="translate(0,0)"/>
<path d="M0 0 C2 1 2 1 2 1 Z " fill="#FEA8A9" transform="translate(723,717)"/>
<path d="M0 0 C2 1 2 1 2 1 Z " fill="#F2A3A6" transform="translate(821,703)"/>
<path d="M0 0 C2 1 2 1 2 1 Z " fill="#F9A5A9" transform="translate(644,701)"/>
<path d="" fill="#F0A5A8" transform="translate(0,0)"/>
<path d="" fill="#FCACAD" transform="translate(0,0)"/>
<path d="" fill="#F2A1A3" transform="translate(0,0)"/>
<path d="M0 0 C2 1 2 1 2 1 Z " fill="#ED7982" transform="translate(334,671)"/>
<path d="" fill="#FFAAAD" transform="translate(0,0)"/>
<path d="" fill="#FDABAF" transform="translate(0,0)"/>
<path d="" fill="#FCACAC" transform="translate(0,0)"/>
<path d="M0 0 C2 1 2 1 2 1 Z " fill="#EC7580" transform="translate(314,653)"/>
<path d="" fill="#EB7881" transform="translate(0,0)"/>
<path d="M0 0 C2 1 2 1 2 1 Z " fill="#FBB5B5" transform="translate(558,636)"/>
<path d="M0 0 C2 1 2 1 2 1 Z " fill="#FCABAC" transform="translate(632,632)"/>
<path d="" fill="#FCA8AA" transform="translate(0,0)"/>
<path d="" fill="#FFACB0" transform="translate(0,0)"/>
<path d="" fill="#E47279" transform="translate(0,0)"/>
<path d="" fill="#FDA7A9" transform="translate(0,0)"/>
<path d="" fill="#ED7680" transform="translate(0,0)"/>
<path d="M0 0 C2 1 2 1 2 1 Z " fill="#FDB1B1" transform="translate(591,607)"/>
<path d="M0 0 C2 1 2 1 2 1 Z " fill="#FEACB0" transform="translate(408,587)"/>
<path d="M0 0 C2 1 2 1 2 1 Z " fill="#FDB1B3" transform="translate(406,583)"/>
<path d="" fill="#FFB7BA" transform="translate(0,0)"/>
<path d="" fill="#FEACB1" transform="translate(0,0)"/>
<path d="M0 0 C2 1 2 1 2 1 Z " fill="#FDA7AA" transform="translate(765,558)"/>
<path d="" fill="#FEB9BA" transform="translate(0,0)"/>
<path d="" fill="#F3A5AA" transform="translate(0,0)"/>
<path d="" fill="#F5A4A8" transform="translate(0,0)"/>
<path d="" fill="#FFB9BA" transform="translate(0,0)"/>
<path d="" fill="#F3A3A6" transform="translate(0,0)"/>
<path d="" fill="#FFB9B8" transform="translate(0,0)"/>
<path d="M0 0 C2 1 2 1 2 1 Z " fill="#FDBABA" transform="translate(384,466)"/>
<path d="M0 0 C2 1 2 1 2 1 Z " fill="#FFB9BB" transform="translate(509,465)"/>
<path d="M0 0 C2 1 2 1 2 1 Z " fill="#FDADB1" transform="translate(731,457)"/>
<path d="M0 0 C2 1 2 1 2 1 Z " fill="#F6A6AA" transform="translate(812,449)"/>
<path d="M0 0 C2 1 2 1 2 1 Z " fill="#ED7681" transform="translate(259,447)"/>
<path d="M0 0 C2 1 2 1 2 1 Z " fill="#EE7881" transform="translate(254,447)"/>
<path d="M0 0 C2 1 2 1 2 1 Z " fill="#EF7A82" transform="translate(251,447)"/>
<path d="M0 0 C2 1 2 1 2 1 Z " fill="#EF7985" transform="translate(268,446)"/>
<path d="M0 0 C2 1 2 1 2 1 Z " fill="#FAA7AA" transform="translate(787,444)"/>
<path d="" fill="#EC757F" transform="translate(0,0)"/>
<path d="M0 0 C2 1 2 1 2 1 Z " fill="#FDBCBE" transform="translate(409,443)"/>
<path d="" fill="#FBABAE" transform="translate(0,0)"/>
<path d="" fill="#FDAAAE" transform="translate(0,0)"/>
<path d="M0 0 C2 1 2 1 2 1 Z " fill="#EB737F" transform="translate(217,436)"/>
<path d="M0 0 C2 1 2 1 2 1 Z " fill="#FDBBBC" transform="translate(433,434)"/>
<path d="" fill="#FEBDC0" transform="translate(0,0)"/>
<path d="" fill="#FFAEB0" transform="translate(0,0)"/>
<path d="" fill="#FFB9BB" transform="translate(0,0)"/>
<path d="M0 0 C2 1 2 1 2 1 Z " fill="#EAA1A3" transform="translate(844,374)"/>
<path d="" fill="#FFBABA" transform="translate(0,0)"/>
<path d="M0 0 C2 1 2 1 2 1 Z " fill="#FEB8B8" transform="translate(441,366)"/>
<path d="M0 0 C2 1 2 1 2 1 Z " fill="#FFBABA" transform="translate(433,366)"/>
<path d="" fill="#FEABAE" transform="translate(0,0)"/>
<path d="" fill="#F28D95" transform="translate(0,0)"/>
<path d="" fill="#FEABAE" transform="translate(0,0)"/>
<path d="" fill="#FDA9AB" transform="translate(0,0)"/>
<path d="" fill="#FDB1B3" transform="translate(0,0)"/>
<path d="M0 0 C2 1 2 1 2 1 Z " fill="#FEBBBB" transform="translate(520,328)"/>
<path d="M0 0 C2 1 2 1 2 1 Z " fill="#FFBCBB" transform="translate(547,322)"/>
<path d="" fill="#FFBABC" transform="translate(0,0)"/>
<path d="M0 0 C2 1 2 1 2 1 Z " fill="#FFB9BB" transform="translate(485,308)"/>
<path d="M0 0 C2 1 2 1 2 1 Z " fill="#FDB5B8" transform="translate(660,304)"/>
<path d="M0 0 C2 1 2 1 2 1 Z " fill="#E3797E" transform="translate(289,298)"/>
<path d="" fill="#FDB6B8" transform="translate(0,0)"/>
<path d="M0 0 C2 1 2 1 2 1 Z " fill="#FDB7B7" transform="translate(585,293)"/>
<path d="" fill="#FCB4B4" transform="translate(0,0)"/>
<path d="M0 0 C2 1 2 1 2 1 Z " fill="#DC727B" transform="translate(247,291)"/>
<path d="" fill="#FEB9BA" transform="translate(0,0)"/>
<path d="" fill="#FEBBBB" transform="translate(0,0)"/>
<path d="" fill="#FFB9BB" transform="translate(0,0)"/>
<path d="" fill="#FAB6B9" transform="translate(0,0)"/>
<path d="" fill="#FAB6B9" transform="translate(0,0)"/>
<path d="" fill="#F3B4B4" transform="translate(0,0)"/>
<path d="" fill="#EC969A" transform="translate(0,0)"/>
<path d="" fill="#EB989A" transform="translate(0,0)"/>
<path d="" fill="#D66B75" transform="translate(0,0)"/>
<path d="" fill="#DA7078" transform="translate(0,0)"/>
<path d="" fill="#EB9A9D" transform="translate(0,0)"/>
<path d="" fill="#DA6C73" transform="translate(0,0)"/>
<path d="" fill="#ED9599" transform="translate(0,0)"/>
<path d="" fill="#D96C75" transform="translate(0,0)"/>
<path d="" fill="#E99596" transform="translate(0,0)"/>
<path d="" fill="#EB979B" transform="translate(0,0)"/>
<path d="" fill="#E8979D" transform="translate(0,0)"/>
<path d="" fill="#EE999F" transform="translate(0,0)"/>
<path d="" fill="#D97379" transform="translate(0,0)"/>
<path d="" fill="#D96D76" transform="translate(0,0)"/>
<path d="" fill="#EB9A9B" transform="translate(0,0)"/>
<path d="" fill="#D17076" transform="translate(0,0)"/>
<path d="" fill="#D56E77" transform="translate(0,0)"/>
<path d="" fill="#E6949A" transform="translate(0,0)"/>
<path d="" fill="#EE9DA2" transform="translate(0,0)"/>
<path d="" fill="#EE9CA1" transform="translate(0,0)"/>
<path d="" fill="#EEA0A2" transform="translate(0,0)"/>
<path d="" fill="#EC999C" transform="translate(0,0)"/>
<path d="" fill="#E6959A" transform="translate(0,0)"/>
<path d="" fill="#DA6B73" transform="translate(0,0)"/>
<path d="" fill="#EC9D9D" transform="translate(0,0)"/>
<path d="" fill="#EB9999" transform="translate(0,0)"/>
<path d="" fill="#EA9998" transform="translate(0,0)"/>
<path d="" fill="#E89699" transform="translate(0,0)"/>
<path d="" fill="#EA9699" transform="translate(0,0)"/>
<path d="" fill="#F09DA0" transform="translate(0,0)"/>
<path d="" fill="#DF777B" transform="translate(0,0)"/>
<path d="" fill="#DF6E76" transform="translate(0,0)"/>
<path d="" fill="#DE6F77" transform="translate(0,0)"/>
<path d="" fill="#DB6B75" transform="translate(0,0)"/>
<path d="" fill="#EE9DA0" transform="translate(0,0)"/>
<path d="" fill="#E9979B" transform="translate(0,0)"/>
<path d="" fill="#EB959A" transform="translate(0,0)"/>
<path d="" fill="#EB9A9C" transform="translate(0,0)"/>
<path d="" fill="#EC9FA1" transform="translate(0,0)"/>
<path d="" fill="#F19F9F" transform="translate(0,0)"/>
<path d="" fill="#EF9A9A" transform="translate(0,0)"/>
<path d="" fill="#EB9A9B" transform="translate(0,0)"/>
<path d="" fill="#EFA1A4" transform="translate(0,0)"/>
<path d="" fill="#EC9A9C" transform="translate(0,0)"/>
<path d="" fill="#EC989C" transform="translate(0,0)"/>
<path d="" fill="#EC9B9D" transform="translate(0,0)"/>
<path d="" fill="#DD6A70" transform="translate(0,0)"/>
<path d="" fill="#DD6B74" transform="translate(0,0)"/>
<path d="" fill="#F59D9F" transform="translate(0,0)"/>
<path d="" fill="#EFA1A3" transform="translate(0,0)"/>
<path d="" fill="#DD6B74" transform="translate(0,0)"/>
<path d="" fill="#E57981" transform="translate(0,0)"/>
<path d="" fill="#E16A71" transform="translate(0,0)"/>
<path d="" fill="#DC6E75" transform="translate(0,0)"/>
<path d="" fill="#F49EA1" transform="translate(0,0)"/>
<path d="" fill="#EFA0A2" transform="translate(0,0)"/>
<path d="" fill="#E87D7C" transform="translate(0,0)"/>
<path d="" fill="#DD6771" transform="translate(0,0)"/>
<path d="" fill="#D86C73" transform="translate(0,0)"/>
<path d="" fill="#EA7C85" transform="translate(0,0)"/>
<path d="" fill="#E67C84" transform="translate(0,0)"/>
<path d="" fill="#DA6974" transform="translate(0,0)"/>
<path d="" fill="#FBA9AC" transform="translate(0,0)"/>
<path d="" fill="#E97C84" transform="translate(0,0)"/>
<path d="" fill="#FBA4A7" transform="translate(0,0)"/>
<path d="" fill="#DD6C79" transform="translate(0,0)"/>
<path d="" fill="#FAA5A9" transform="translate(0,0)"/>
<path d="" fill="#E16B77" transform="translate(0,0)"/>
<path d="" fill="#F8A5A9" transform="translate(0,0)"/>
<path d="" fill="#DC6C79" transform="translate(0,0)"/>
<path d="" fill="#F9A8A9" transform="translate(0,0)"/>
<path d="" fill="#E06D72" transform="translate(0,0)"/>
<path d="" fill="#F8A8AC" transform="translate(0,0)"/>
<path d="" fill="#FBA8AA" transform="translate(0,0)"/>
<path d="" fill="#E87F89" transform="translate(0,0)"/>
<path d="" fill="#FAABAA" transform="translate(0,0)"/>
<path d="" fill="#EB7D86" transform="translate(0,0)"/>
<path d="" fill="#EA7884" transform="translate(0,0)"/>
<path d="" fill="#FAA7AA" transform="translate(0,0)"/>
<path d="" fill="#EA7B80" transform="translate(0,0)"/>
<path d="" fill="#DF6A74" transform="translate(0,0)"/>
<path d="" fill="#FFACAC" transform="translate(0,0)"/>
<path d="" fill="#DF6D76" transform="translate(0,0)"/>
<path d="" fill="#E97B83" transform="translate(0,0)"/>
<path d="" fill="#FFA7AE" transform="translate(0,0)"/>
<path d="" fill="#EB7781" transform="translate(0,0)"/>
<path d="" fill="#EB7C7C" transform="translate(0,0)"/>
<path d="" fill="#FAA8AC" transform="translate(0,0)"/>
<path d="" fill="#F9A9AA" transform="translate(0,0)"/>
<path d="" fill="#EC7A81" transform="translate(0,0)"/>
<path d="" fill="#ED9DA1" transform="translate(0,0)"/>
<path d="" fill="#DE6B75" transform="translate(0,0)"/>
<path d="" fill="#DE6C78" transform="translate(0,0)"/>
<path d="" fill="#EA7A80" transform="translate(0,0)"/>
<path d="" fill="#E9797F" transform="translate(0,0)"/>
<path d="" fill="#EA7581" transform="translate(0,0)"/>
<path d="" fill="#FFABAC" transform="translate(0,0)"/>
<path d="" fill="#FDA9AC" transform="translate(0,0)"/>
<path d="" fill="#FCABAF" transform="translate(0,0)"/>
<path d="" fill="#EB7780" transform="translate(0,0)"/>
<path d="" fill="#DB6C75" transform="translate(0,0)"/>
<path d="" fill="#DF6B79" transform="translate(0,0)"/>
<path d="" fill="#E56B76" transform="translate(0,0)"/>
<path d="" fill="#E77980" transform="translate(0,0)"/>
<path d="" fill="#ED9D9F" transform="translate(0,0)"/>
<path d="" fill="#E66D77" transform="translate(0,0)"/>
<path d="" fill="#DF6B76" transform="translate(0,0)"/>
<path d="" fill="#F9AAB0" transform="translate(0,0)"/>
<path d="" fill="#ED797F" transform="translate(0,0)"/>
<path d="" fill="#E26A76" transform="translate(0,0)"/>
<path d="" fill="#E16E78" transform="translate(0,0)"/>
<path d="" fill="#E97D83" transform="translate(0,0)"/>
<path d="" fill="#ED8185" transform="translate(0,0)"/>
<path d="" fill="#F7A8A8" transform="translate(0,0)"/>
<path d="" fill="#E97D83" transform="translate(0,0)"/>
<path d="" fill="#EB7C86" transform="translate(0,0)"/>
<path d="" fill="#EB7C85" transform="translate(0,0)"/>
<path d="" fill="#F7A5A7" transform="translate(0,0)"/>
<path d="" fill="#E06F75" transform="translate(0,0)"/>
<path d="" fill="#F9A3A8" transform="translate(0,0)"/>
<path d="" fill="#FEA6AB" transform="translate(0,0)"/>
<path d="" fill="#F8A4AA" transform="translate(0,0)"/>
<path d="" fill="#EFA1A4" transform="translate(0,0)"/>
<path d="" fill="#FDA8AB" transform="translate(0,0)"/>
<path d="" fill="#FFA7AC" transform="translate(0,0)"/>
<path d="" fill="#EB7B81" transform="translate(0,0)"/>
<path d="" fill="#EC7980" transform="translate(0,0)"/>
<path d="" fill="#ED7C85" transform="translate(0,0)"/>
<path d="" fill="#F1A1A4" transform="translate(0,0)"/>
<path d="" fill="#EC797F" transform="translate(0,0)"/>
<path d="" fill="#FCA8AB" transform="translate(0,0)"/>
<path d="" fill="#F9A6A7" transform="translate(0,0)"/>
<path d="" fill="#FBA8AB" transform="translate(0,0)"/>
<path d="" fill="#FEABA9" transform="translate(0,0)"/>
<path d="" fill="#FAA8A9" transform="translate(0,0)"/>
<path d="" fill="#F3A5A8" transform="translate(0,0)"/>
<path d="" fill="#EC7D84" transform="translate(0,0)"/>
<path d="" fill="#EC7A85" transform="translate(0,0)"/>
<path d="" fill="#F07C85" transform="translate(0,0)"/>
<path d="" fill="#F1A4A6" transform="translate(0,0)"/>
<path d="" fill="#FFA6AC" transform="translate(0,0)"/>
<path d="" fill="#F9A9A9" transform="translate(0,0)"/>
<path d="" fill="#E7777E" transform="translate(0,0)"/>
<path d="" fill="#F2A3A2" transform="translate(0,0)"/>
<path d="" fill="#FBA7A9" transform="translate(0,0)"/>
<path d="" fill="#FBAAA9" transform="translate(0,0)"/>
<path d="" fill="#E1717B" transform="translate(0,0)"/>
<path d="" fill="#FFADB1" transform="translate(0,0)"/>
<path d="" fill="#E16E77" transform="translate(0,0)"/>
<path d="" fill="#FFA7AB" transform="translate(0,0)"/>
<path d="" fill="#F38E96" transform="translate(0,0)"/>
<path d="" fill="#F38F98" transform="translate(0,0)"/>
<path d="" fill="#F0A4A5" transform="translate(0,0)"/>
<path d="" fill="#FBA7A9" transform="translate(0,0)"/>
<path d="" fill="#FFAFB3" transform="translate(0,0)"/>
<path d="" fill="#EC7A80" transform="translate(0,0)"/>
<path d="" fill="#EB7A80" transform="translate(0,0)"/>
<path d="" fill="#FDADAD" transform="translate(0,0)"/>
<path d="" fill="#FDB3B4" transform="translate(0,0)"/>
<path d="" fill="#F4949C" transform="translate(0,0)"/>
<path d="" fill="#F28F95" transform="translate(0,0)"/>
<path d="" fill="#FBA7AB" transform="translate(0,0)"/>
<path d="" fill="#E9787F" transform="translate(0,0)"/>
<path d="" fill="#FFAAAF" transform="translate(0,0)"/>
<path d="" fill="#FCB0B1" transform="translate(0,0)"/>
<path d="" fill="#FDADB3" transform="translate(0,0)"/>
<path d="" fill="#FEA9AE" transform="translate(0,0)"/>
<path d="" fill="#FFA9AD" transform="translate(0,0)"/>
<path d="" fill="#FEAAB1" transform="translate(0,0)"/>
<path d="" fill="#FFA9AC" transform="translate(0,0)"/>
<path d="" fill="#FFB2B3" transform="translate(0,0)"/>
<path d="" fill="#FCB2B4" transform="translate(0,0)"/>
<path d="" fill="#F39197" transform="translate(0,0)"/>
<path d="" fill="#FDA9AD" transform="translate(0,0)"/>
<path d="" fill="#DF6F79" transform="translate(0,0)"/>
<path d="" fill="#FEACAC" transform="translate(0,0)"/>
<path d="" fill="#FCAEB0" transform="translate(0,0)"/>
<path d="" fill="#F7A2A3" transform="translate(0,0)"/>
<path d="" fill="#FCB2B3" transform="translate(0,0)"/>
<path d="" fill="#FEB1B5" transform="translate(0,0)"/>
<path d="" fill="#FDAEB1" transform="translate(0,0)"/>
<path d="" fill="#EB7780" transform="translate(0,0)"/>
<path d="" fill="#F1A3A7" transform="translate(0,0)"/>
<path d="" fill="#ED787E" transform="translate(0,0)"/>
<path d="" fill="#FEAFB4" transform="translate(0,0)"/>
<path d="" fill="#FBB0B1" transform="translate(0,0)"/>
<path d="" fill="#FDACB0" transform="translate(0,0)"/>
<path d="" fill="#FBB3B7" transform="translate(0,0)"/>
<path d="" fill="#FCAAA9" transform="translate(0,0)"/>
<path d="" fill="#FBB0B4" transform="translate(0,0)"/>
<path d="" fill="#F1A6A9" transform="translate(0,0)"/>
<path d="" fill="#EC737B" transform="translate(0,0)"/>
<path d="" fill="#FBA8A6" transform="translate(0,0)"/>
<path d="" fill="#F9A8A9" transform="translate(0,0)"/>
<path d="" fill="#FFB3B6" transform="translate(0,0)"/>
<path d="" fill="#F8B1B4" transform="translate(0,0)"/>
<path d="" fill="#ED7882" transform="translate(0,0)"/>
<path d="" fill="#FCB2B6" transform="translate(0,0)"/>
<path d="" fill="#FFB4B6" transform="translate(0,0)"/>
<path d="" fill="#FFB0B2" transform="translate(0,0)"/>
<path d="" fill="#F18792" transform="translate(0,0)"/>
<path d="" fill="#FDAAAC" transform="translate(0,0)"/>
<path d="" fill="#EC7981" transform="translate(0,0)"/>
<path d="" fill="#ED818A" transform="translate(0,0)"/>
<path d="" fill="#F0A3A3" transform="translate(0,0)"/>
<path d="" fill="#FFA5A6" transform="translate(0,0)"/>
<path d="" fill="#F9A4A6" transform="translate(0,0)"/>
<path d="" fill="#FFB0B2" transform="translate(0,0)"/>
<path d="" fill="#FCB0B3" transform="translate(0,0)"/>
<path d="" fill="#FDACAC" transform="translate(0,0)"/>
<path d="" fill="#E16F78" transform="translate(0,0)"/>
<path d="" fill="#FFAFB1" transform="translate(0,0)"/>
<path d="" fill="#FFAAAE" transform="translate(0,0)"/>
<path d="" fill="#FEA8AC" transform="translate(0,0)"/>
<path d="" fill="#FFABAF" transform="translate(0,0)"/>
<path d="" fill="#FDAAAD" transform="translate(0,0)"/>
<path d="" fill="#EC767F" transform="translate(0,0)"/>
<path d="" fill="#E67178" transform="translate(0,0)"/>
<path d="" fill="#FFA7AD" transform="translate(0,0)"/>
<path d="" fill="#FCA7AD" transform="translate(0,0)"/>
<path d="" fill="#EB7880" transform="translate(0,0)"/>
<path d="" fill="#FDA9B0" transform="translate(0,0)"/>
<path d="" fill="#E1707A" transform="translate(0,0)"/>
<path d="" fill="#FCB2B2" transform="translate(0,0)"/>
<path d="" fill="#FDA8AA" transform="translate(0,0)"/>
<path d="" fill="#FEA7A9" transform="translate(0,0)"/>
<path d="" fill="#FBACAF" transform="translate(0,0)"/>
<path d="" fill="#E9787E" transform="translate(0,0)"/>
<path d="" fill="#FEADB1" transform="translate(0,0)"/>
<path d="" fill="#FEA5AB" transform="translate(0,0)"/>
<path d="" fill="#FDADAC" transform="translate(0,0)"/>
<path d="" fill="#FAB6B7" transform="translate(0,0)"/>
<path d="" fill="#ED7580" transform="translate(0,0)"/>
<path d="" fill="#FFB7B8" transform="translate(0,0)"/>
<path d="" fill="#EB7683" transform="translate(0,0)"/>
<path d="" fill="#EF838A" transform="translate(0,0)"/>
<path d="" fill="#FFB4B6" transform="translate(0,0)"/>
<path d="" fill="#EA737E" transform="translate(0,0)"/>
<path d="" fill="#E1717B" transform="translate(0,0)"/>
<path d="" fill="#F3A6AB" transform="translate(0,0)"/>
<path d="" fill="#FEACAE" transform="translate(0,0)"/>
<path d="" fill="#FCB2B4" transform="translate(0,0)"/>
<path d="" fill="#FFB6B7" transform="translate(0,0)"/>
<path d="" fill="#FEAEB0" transform="translate(0,0)"/>
<path d="" fill="#FDB1B3" transform="translate(0,0)"/>
<path d="" fill="#FFADB3" transform="translate(0,0)"/>
<path d="" fill="#E2737C" transform="translate(0,0)"/>
<path d="" fill="#FAB4B7" transform="translate(0,0)"/>
<path d="" fill="#FFB3B9" transform="translate(0,0)"/>
<path d="" fill="#FEACAD" transform="translate(0,0)"/>
<path d="" fill="#EB7680" transform="translate(0,0)"/>
<path d="" fill="#E5737F" transform="translate(0,0)"/>
<path d="" fill="#FDB4B8" transform="translate(0,0)"/>
<path d="" fill="#FFADB0" transform="translate(0,0)"/>
<path d="" fill="#FFAFB1" transform="translate(0,0)"/>
<path d="" fill="#ED7F85" transform="translate(0,0)"/>
<path d="" fill="#FEAFAF" transform="translate(0,0)"/>
<path d="" fill="#EA7580" transform="translate(0,0)"/>
<path d="" fill="#FEAFB1" transform="translate(0,0)"/>
<path d="" fill="#FBADB2" transform="translate(0,0)"/>
<path d="" fill="#FCAEB1" transform="translate(0,0)"/>
<path d="" fill="#FFABB0" transform="translate(0,0)"/>
<path d="" fill="#FFADB0" transform="translate(0,0)"/>
<path d="" fill="#FFB0B0" transform="translate(0,0)"/>
<path d="" fill="#FFAEB2" transform="translate(0,0)"/>
<path d="" fill="#FCA7AB" transform="translate(0,0)"/>
<path d="" fill="#FFB3B7" transform="translate(0,0)"/>
<path d="" fill="#FFB5B6" transform="translate(0,0)"/>
<path d="" fill="#FCAEB0" transform="translate(0,0)"/>
<path d="" fill="#FAB2AF" transform="translate(0,0)"/>
<path d="" fill="#FCB8BC" transform="translate(0,0)"/>
<path d="" fill="#ECA2A2" transform="translate(0,0)"/>
<path d="" fill="#FFB7B8" transform="translate(0,0)"/>
<path d="" fill="#FFAFB0" transform="translate(0,0)"/>
<path d="" fill="#FBB0B5" transform="translate(0,0)"/>
<path d="" fill="#FEAEAF" transform="translate(0,0)"/>
<path d="" fill="#FFB0B3" transform="translate(0,0)"/>
<path d="" fill="#FAAFB3" transform="translate(0,0)"/>
<path d="" fill="#FFB1B3" transform="translate(0,0)"/>
<path d="" fill="#EC828A" transform="translate(0,0)"/>
<path d="" fill="#FEB0B2" transform="translate(0,0)"/>
<path d="" fill="#FDAFB0" transform="translate(0,0)"/>
<path d="" fill="#FFA9AC" transform="translate(0,0)"/>
<path d="" fill="#FFAFB2" transform="translate(0,0)"/>
<path d="" fill="#FEB7B7" transform="translate(0,0)"/>
<path d="" fill="#FFB4B6" transform="translate(0,0)"/>
<path d="" fill="#FEA9AC" transform="translate(0,0)"/>
<path d="" fill="#FFAAAB" transform="translate(0,0)"/>
<path d="" fill="#FFACB0" transform="translate(0,0)"/>
<path d="" fill="#FFAAAE" transform="translate(0,0)"/>
<path d="" fill="#FFB2B5" transform="translate(0,0)"/>
<path d="" fill="#FEAFB1" transform="translate(0,0)"/>
<path d="" fill="#FBAEAE" transform="translate(0,0)"/>
<path d="" fill="#FFABAE" transform="translate(0,0)"/>
<path d="" fill="#F4A5A9" transform="translate(0,0)"/>
<path d="" fill="#FFB6B7" transform="translate(0,0)"/>
<path d="" fill="#FFB0B4" transform="translate(0,0)"/>
<path d="" fill="#FFACAB" transform="translate(0,0)"/>
<path d="" fill="#ED858C" transform="translate(0,0)"/>
<path d="" fill="#FEB3B3" transform="translate(0,0)"/>
<path d="" fill="#EF838A" transform="translate(0,0)"/>
<path d="" fill="#FDAEB1" transform="translate(0,0)"/>
<path d="" fill="#FBB2B6" transform="translate(0,0)"/>
<path d="" fill="#FFACAD" transform="translate(0,0)"/>
<path d="" fill="#FFB5B8" transform="translate(0,0)"/>
<path d="" fill="#FBAFB0" transform="translate(0,0)"/>
<path d="" fill="#F2A4A8" transform="translate(0,0)"/>
<path d="" fill="#FFB2B3" transform="translate(0,0)"/>
<path d="" fill="#FFB1B3" transform="translate(0,0)"/>
<path d="" fill="#FFB3B2" transform="translate(0,0)"/>
<path d="" fill="#F4A3A9" transform="translate(0,0)"/>
<path d="" fill="#F5A4A7" transform="translate(0,0)"/>
<path d="" fill="#EE828D" transform="translate(0,0)"/>
<path d="" fill="#DE767E" transform="translate(0,0)"/>
<path d="" fill="#FDAFB2" transform="translate(0,0)"/>
<path d="" fill="#E4737C" transform="translate(0,0)"/>
<path d="" fill="#F4A4A6" transform="translate(0,0)"/>
<path d="" fill="#FDB1B4" transform="translate(0,0)"/>
<path d="" fill="#FEADAF" transform="translate(0,0)"/>
<path d="" fill="#FDB8B8" transform="translate(0,0)"/>
<path d="" fill="#FEB8B9" transform="translate(0,0)"/>
<path d="" fill="#FEAEB1" transform="translate(0,0)"/>
<path d="" fill="#FFBABF" transform="translate(0,0)"/>
<path d="" fill="#FEB5B7" transform="translate(0,0)"/>
<path d="" fill="#E3737E" transform="translate(0,0)"/>
<path d="" fill="#E2737F" transform="translate(0,0)"/>
<path d="" fill="#E27583" transform="translate(0,0)"/>
<path d="" fill="#F1A3A5" transform="translate(0,0)"/>
<path d="" fill="#FEB9BA" transform="translate(0,0)"/>
<path d="" fill="#FFBABB" transform="translate(0,0)"/>
<path d="" fill="#EF8892" transform="translate(0,0)"/>
<path d="" fill="#FDB6B7" transform="translate(0,0)"/>
<path d="" fill="#FCAFB0" transform="translate(0,0)"/>
<path d="" fill="#FEB9B8" transform="translate(0,0)"/>
<path d="" fill="#E4757C" transform="translate(0,0)"/>
<path d="" fill="#FFB9BA" transform="translate(0,0)"/>
<path d="" fill="#E2727D" transform="translate(0,0)"/>
<path d="" fill="#E3767F" transform="translate(0,0)"/>
<path d="" fill="#F5A4A4" transform="translate(0,0)"/>
<path d="" fill="#FFBABB" transform="translate(0,0)"/>
<path d="" fill="#E2737C" transform="translate(0,0)"/>
<path d="" fill="#EE838B" transform="translate(0,0)"/>
<path d="" fill="#E3777E" transform="translate(0,0)"/>
<path d="" fill="#E3737D" transform="translate(0,0)"/>
<path d="" fill="#F9ACB4" transform="translate(0,0)"/>
<path d="" fill="#E17580" transform="translate(0,0)"/>
<path d="" fill="#FBAAAE" transform="translate(0,0)"/>
<path d="" fill="#FDAAAF" transform="translate(0,0)"/>
<path d="" fill="#FCABAE" transform="translate(0,0)"/>
<path d="" fill="#FEACB2" transform="translate(0,0)"/>
<path d="" fill="#ED7A84" transform="translate(0,0)"/>
<path d="" fill="#EE7982" transform="translate(0,0)"/>
<path d="" fill="#FBAAAE" transform="translate(0,0)"/>
<path d="" fill="#FEA9AF" transform="translate(0,0)"/>
<path d="" fill="#FFBFC0" transform="translate(0,0)"/>
<path d="" fill="#EF7B83" transform="translate(0,0)"/>
<path d="" fill="#F6A6A6" transform="translate(0,0)"/>
<path d="" fill="#FEBAC0" transform="translate(0,0)"/>
<path d="" fill="#FAAAB1" transform="translate(0,0)"/>
<path d="" fill="#F9A8B0" transform="translate(0,0)"/>
<path d="" fill="#EC7981" transform="translate(0,0)"/>
<path d="" fill="#F3A5A8" transform="translate(0,0)"/>
<path d="" fill="#FFB9B7" transform="translate(0,0)"/>
<path d="" fill="#FFBDBD" transform="translate(0,0)"/>
<path d="" fill="#F4A8AA" transform="translate(0,0)"/>
<path d="" fill="#FEB8B8" transform="translate(0,0)"/>
<path d="" fill="#F4A7A8" transform="translate(0,0)"/>
<path d="" fill="#FFBDC0" transform="translate(0,0)"/>
<path d="" fill="#FFBABD" transform="translate(0,0)"/>
<path d="" fill="#FFB7B8" transform="translate(0,0)"/>
<path d="" fill="#FFBCBE" transform="translate(0,0)"/>
<path d="" fill="#FFBCBC" transform="translate(0,0)"/>
<path d="" fill="#FEA8AA" transform="translate(0,0)"/>
<path d="" fill="#FDA9AB" transform="translate(0,0)"/>
<path d="" fill="#FBA7AC" transform="translate(0,0)"/>
<path d="" fill="#EF7880" transform="translate(0,0)"/>
<path d="" fill="#EE7682" transform="translate(0,0)"/>
<path d="" fill="#FEA8AA" transform="translate(0,0)"/>
<path d="" fill="#FEA6AB" transform="translate(0,0)"/>
<path d="" fill="#FEBABB" transform="translate(0,0)"/>
<path d="" fill="#EC7783" transform="translate(0,0)"/>
<path d="" fill="#FEA4AA" transform="translate(0,0)"/>
<path d="" fill="#FAA6A9" transform="translate(0,0)"/>
<path d="" fill="#F07987" transform="translate(0,0)"/>
<path d="" fill="#F07881" transform="translate(0,0)"/>
<path d="" fill="#FFBDBB" transform="translate(0,0)"/>
<path d="" fill="#FFBEBE" transform="translate(0,0)"/>
<path d="" fill="#F07A83" transform="translate(0,0)"/>
<path d="" fill="#FEA4A6" transform="translate(0,0)"/>
<path d="" fill="#FCA9AF" transform="translate(0,0)"/>
<path d="" fill="#FFBBBE" transform="translate(0,0)"/>
<path d="" fill="#FFBFBF" transform="translate(0,0)"/>
<path d="" fill="#FFBBBD" transform="translate(0,0)"/>
<path d="" fill="#FFBCBD" transform="translate(0,0)"/>
<path d="" fill="#FFBDBC" transform="translate(0,0)"/>
<path d="" fill="#FFBDBA" transform="translate(0,0)"/>
<path d="" fill="#FCB6BC" transform="translate(0,0)"/>
<path d="" fill="#FFBBC1" transform="translate(0,0)"/>
<path d="" fill="#FFABAE" transform="translate(0,0)"/>
<path d="" fill="#EF7E8A" transform="translate(0,0)"/>
<path d="" fill="#EB717F" transform="translate(0,0)"/>
<path d="" fill="#EB7682" transform="translate(0,0)"/>
<path d="" fill="#FFBEBD" transform="translate(0,0)"/>
<path d="" fill="#E8747F" transform="translate(0,0)"/>
<path d="" fill="#FCA8AC" transform="translate(0,0)"/>
<path d="" fill="#FFB9BD" transform="translate(0,0)"/>
<path d="" fill="#FFBBBD" transform="translate(0,0)"/>
<path d="" fill="#FFBDBD" transform="translate(0,0)"/>
<path d="" fill="#FEBBBF" transform="translate(0,0)"/>
<path d="" fill="#FFBCBD" transform="translate(0,0)"/>
<path d="" fill="#FFB8BA" transform="translate(0,0)"/>
<path d="" fill="#FDABAD" transform="translate(0,0)"/>
<path d="" fill="#FDB1B1" transform="translate(0,0)"/>
<path d="" fill="#F4989C" transform="translate(0,0)"/>
<path d="" fill="#EF868F" transform="translate(0,0)"/>
<path d="" fill="#E5727B" transform="translate(0,0)"/>
<path d="" fill="#FEB4B3" transform="translate(0,0)"/>
<path d="" fill="#FFB3B8" transform="translate(0,0)"/>
<path d="" fill="#FFAFB1" transform="translate(0,0)"/>
<path d="" fill="#FCA9AB" transform="translate(0,0)"/>
<path d="" fill="#FEB2B4" transform="translate(0,0)"/>
<path d="" fill="#FBACAE" transform="translate(0,0)"/>
<path d="" fill="#FCB6B8" transform="translate(0,0)"/>
<path d="" fill="#FEB6B7" transform="translate(0,0)"/>
<path d="" fill="#F9A4A5" transform="translate(0,0)"/>
<path d="" fill="#FBACAF" transform="translate(0,0)"/>
<path d="" fill="#FFB1B2" transform="translate(0,0)"/>
<path d="" fill="#E3707A" transform="translate(0,0)"/>
<path d="" fill="#F3A6A6" transform="translate(0,0)"/>
<path d="" fill="#FBB0AE" transform="translate(0,0)"/>
<path d="" fill="#F0858C" transform="translate(0,0)"/>
<path d="" fill="#F0A4A4" transform="translate(0,0)"/>
<path d="" fill="#FBAEB0" transform="translate(0,0)"/>
<path d="" fill="#FEB8B6" transform="translate(0,0)"/>
<path d="" fill="#F0A4A4" transform="translate(0,0)"/>
<path d="" fill="#FDB3B5" transform="translate(0,0)"/>
<path d="" fill="#FFB5B9" transform="translate(0,0)"/>
<path d="" fill="#FFB6B4" transform="translate(0,0)"/>
<path d="" fill="#FEB3B5" transform="translate(0,0)"/>
<path d="" fill="#E46C75" transform="translate(0,0)"/>
<path d="" fill="#FEA4A9" transform="translate(0,0)"/>
<path d="" fill="#FEB8BA" transform="translate(0,0)"/>
<path d="" fill="#FBAAAB" transform="translate(0,0)"/>
<path d="" fill="#EFA3A2" transform="translate(0,0)"/>
<path d="" fill="#FFBBBD" transform="translate(0,0)"/>
<path d="" fill="#FCB3AD" transform="translate(0,0)"/>
<path d="" fill="#F28C96" transform="translate(0,0)"/>
<path d="" fill="#FDB8B9" transform="translate(0,0)"/>
<path d="" fill="#FDB8BB" transform="translate(0,0)"/>
<path d="" fill="#FEB7BB" transform="translate(0,0)"/>
<path d="" fill="#FDBBBE" transform="translate(0,0)"/>
<path d="" fill="#FFB9BE" transform="translate(0,0)"/>
<path d="" fill="#FFBABD" transform="translate(0,0)"/>
<path d="" fill="#DF6D73" transform="translate(0,0)"/>
<path d="" fill="#FFAEB5" transform="translate(0,0)"/>
<path d="" fill="#FFB8BB" transform="translate(0,0)"/>
<path d="" fill="#F3A5A3" transform="translate(0,0)"/>
<path d="" fill="#FCB6BA" transform="translate(0,0)"/>
<path d="" fill="#FEB5B7" transform="translate(0,0)"/>
<path d="" fill="#FFB8BA" transform="translate(0,0)"/>
<path d="" fill="#FFB8BC" transform="translate(0,0)"/>
<path d="" fill="#E46C77" transform="translate(0,0)"/>
<path d="" fill="#FFB9B9" transform="translate(0,0)"/>
<path d="" fill="#FFB9C0" transform="translate(0,0)"/>
<path d="" fill="#FDB7BA" transform="translate(0,0)"/>
<path d="" fill="#FCB8BF" transform="translate(0,0)"/>
<path d="" fill="#FEB4B4" transform="translate(0,0)"/>
<path d="" fill="#FDADB1" transform="translate(0,0)"/>
<path d="" fill="#FDB0B2" transform="translate(0,0)"/>
<path d="" fill="#FEB6B5" transform="translate(0,0)"/>
<path d="" fill="#FFB7B7" transform="translate(0,0)"/>
<path d="" fill="#FDAFB3" transform="translate(0,0)"/>
<path d="" fill="#FFB8B9" transform="translate(0,0)"/>
<path d="" fill="#FFB8BB" transform="translate(0,0)"/>
<path d="" fill="#FEACAE" transform="translate(0,0)"/>
<path d="" fill="#FFB9BB" transform="translate(0,0)"/>
<path d="" fill="#FDA7AB" transform="translate(0,0)"/>
<path d="" fill="#FDA9AB" transform="translate(0,0)"/>
<path d="" fill="#FFB8B7" transform="translate(0,0)"/>
<path d="" fill="#FDBABC" transform="translate(0,0)"/>
<path d="" fill="#FFB7BA" transform="translate(0,0)"/>
<path d="" fill="#FFBCBA" transform="translate(0,0)"/>
<path d="" fill="#FFB8BE" transform="translate(0,0)"/>
<path d="" fill="#FCB0B2" transform="translate(0,0)"/>
<path d="" fill="#FFBBB9" transform="translate(0,0)"/>
<path d="" fill="#FFBABB" transform="translate(0,0)"/>
<path d="" fill="#FFB7BA" transform="translate(0,0)"/>
<path d="" fill="#FEB9BD" transform="translate(0,0)"/>
<path d="" fill="#FFBABC" transform="translate(0,0)"/>
<path d="" fill="#FEB9BA" transform="translate(0,0)"/>
<path d="" fill="#F0A2A2" transform="translate(0,0)"/>
<path d="" fill="#FFB8BB" transform="translate(0,0)"/>
<path d="" fill="#FFBABB" transform="translate(0,0)"/>
<path d="" fill="#EEA0A2" transform="translate(0,0)"/>
<path d="" fill="#FEB8BA" transform="translate(0,0)"/>
<path d="" fill="#FFB9B7" transform="translate(0,0)"/>
<path d="" fill="#FFBABD" transform="translate(0,0)"/>
<path d="" fill="#FFB5B7" transform="translate(0,0)"/>
<path d="" fill="#FEAFB0" transform="translate(0,0)"/>
<path d="" fill="#FCB7B8" transform="translate(0,0)"/>
<path d="" fill="#FFB7BA" transform="translate(0,0)"/>
<path d="" fill="#F38F97" transform="translate(0,0)"/>
<path d="" fill="#FEAEB2" transform="translate(0,0)"/>
<path d="" fill="#FBB4B3" transform="translate(0,0)"/>
<path d="" fill="#FEABB2" transform="translate(0,0)"/>
<path d="" fill="#DC6C76" transform="translate(0,0)"/>
<path d="" fill="#FEB0B1" transform="translate(0,0)"/>
<path d="" fill="#FDA9AD" transform="translate(0,0)"/>
<path d="" fill="#FEAFB1" transform="translate(0,0)"/>
<path d="" fill="#FCACB1" transform="translate(0,0)"/>
<path d="" fill="#FFB3B7" transform="translate(0,0)"/>
<path d="" fill="#FFB1B3" transform="translate(0,0)"/>
<path d="" fill="#FEAFB1" transform="translate(0,0)"/>
<path d="" fill="#F28B92" transform="translate(0,0)"/>
<path d="" fill="#ED9DA2" transform="translate(0,0)"/>
<path d="" fill="#FEB4B8" transform="translate(0,0)"/>
<path d="" fill="#FCA9AE" transform="translate(0,0)"/>
<path d="" fill="#EC9E9F" transform="translate(0,0)"/>
<path d="" fill="#ED9C9D" transform="translate(0,0)"/>
<path d="" fill="#FFB5B8" transform="translate(0,0)"/>
<path d="" fill="#FCB5B3" transform="translate(0,0)"/>
<path d="" fill="#FDBAB9" transform="translate(0,0)"/>
<path d="" fill="#FFB9B9" transform="translate(0,0)"/>
<path d="" fill="#EF8D8E" transform="translate(0,0)"/>
<path d="" fill="#F7A7A8" transform="translate(0,0)"/>
<path d="" fill="#FFBCBD" transform="translate(0,0)"/>
<path d="" fill="#FFB9BC" transform="translate(0,0)"/>
<path d="" fill="#EB9E9F" transform="translate(0,0)"/>
<path d="" fill="#FDAFB3" transform="translate(0,0)"/>
<path d="" fill="#FFBBBC" transform="translate(0,0)"/>
<path d="" fill="#EC7F8A" transform="translate(0,0)"/>
<path d="" fill="#FAAFB3" transform="translate(0,0)"/>
<path d="" fill="#FDB6B9" transform="translate(0,0)"/>
<path d="" fill="#DA6D75" transform="translate(0,0)"/>
<path d="" fill="#D96C75" transform="translate(0,0)"/>
<path d="" fill="#FEB7B9" transform="translate(0,0)"/>
<path d="" fill="#FDB5BA" transform="translate(0,0)"/>
<path d="" fill="#FFB7BB" transform="translate(0,0)"/>
<path d="" fill="#D76C76" transform="translate(0,0)"/>
<path d="" fill="#F8ADB0" transform="translate(0,0)"/>
<path d="" fill="#FFB5B8" transform="translate(0,0)"/>
<path d="" fill="#F9ACB0" transform="translate(0,0)"/>
<path d="" fill="#FEB2B7" transform="translate(0,0)"/>
<path d="" fill="#FFB9BA" transform="translate(0,0)"/>
<path d="" fill="#FBB7B7" transform="translate(0,0)"/>
<path d="" fill="#F7A8AC" transform="translate(0,0)"/>
<path d="" fill="#D66C75" transform="translate(0,0)"/>
<path d="" fill="#FFBABD" transform="translate(0,0)"/>
<path d="" fill="#FFBBBA" transform="translate(0,0)"/>
<path d="" fill="#FFBABC" transform="translate(0,0)"/>
<path d="" fill="#FFBABE" transform="translate(0,0)"/>
<path d="" fill="#FEB7B9" transform="translate(0,0)"/>
<path d="" fill="#F5A8AA" transform="translate(0,0)"/>
<path d="" fill="#FFB8BB" transform="translate(0,0)"/>
<path d="" fill="#F9B0AE" transform="translate(0,0)"/>
<path d="" fill="#E77F87" transform="translate(0,0)"/>
<path d="" fill="#FFBBBC" transform="translate(0,0)"/>
<path d="" fill="#FDBFC0" transform="translate(0,0)"/>
<path d="" fill="#F8B2B6" transform="translate(0,0)"/>
<path d="" fill="#F5ACB0" transform="translate(0,0)"/>
<path d="" fill="#FCB4B4" transform="translate(0,0)"/>
<path d="" fill="#FDB9BD" transform="translate(0,0)"/>
<path d="" fill="#FFB9BC" transform="translate(0,0)"/>
<path d="" fill="#F7ABAC" transform="translate(0,0)"/>
<path d="" fill="#D7717D" transform="translate(0,0)"/>
<path d="" fill="#D86E76" transform="translate(0,0)"/>
<path d="" fill="#FCBBBC" transform="translate(0,0)"/>
<path d="" fill="#FFBABC" transform="translate(0,0)"/>
<path d="" fill="#FFBFC1" transform="translate(0,0)"/>
<path d="" fill="#FCAFB4" transform="translate(0,0)"/>
<path d="" fill="#F4A7AA" transform="translate(0,0)"/>
<path d="" fill="#F6AAAA" transform="translate(0,0)"/>
<path d="" fill="#EAA19F" transform="translate(0,0)"/>
<path d="" fill="#FFB9BB" transform="translate(0,0)"/>
<path d="" fill="#FBB4B6" transform="translate(0,0)"/>
<path d="" fill="#F1A7A9" transform="translate(0,0)"/>
<path d="" fill="#FAB6B4" transform="translate(0,0)"/>
<path d="" fill="#EC9FA0" transform="translate(0,0)"/>
<path d="" fill="#F7AAAC" transform="translate(0,0)"/>
<path d="" fill="#FFBABC" transform="translate(0,0)"/>
<path d="" fill="#FFBAB8" transform="translate(0,0)"/>
<path d="" fill="#FFB9BD" transform="translate(0,0)"/>
<path d="" fill="#F0A6A7" transform="translate(0,0)"/>
<path d="" fill="#F1A4A5" transform="translate(0,0)"/>
<path d="" fill="#FFBBBB" transform="translate(0,0)"/>
<path d="" fill="#F1A2A5" transform="translate(0,0)"/>
<path d="" fill="#FFB9BA" transform="translate(0,0)"/>
<path d="" fill="#EE9FA3" transform="translate(0,0)"/>
<path d="" fill="#FDB8B9" transform="translate(0,0)"/>
<path d="" fill="#FFBBBD" transform="translate(0,0)"/>
<path d="" fill="#DC707A" transform="translate(0,0)"/>
<path d="" fill="#FBB8B9" transform="translate(0,0)"/>
<path d="" fill="#FFBABB" transform="translate(0,0)"/>
<path d="" fill="#DB727B" transform="translate(0,0)"/>
<path d="" fill="#FBB6B8" transform="translate(0,0)"/>
<path d="" fill="#F7B4B6" transform="translate(0,0)"/>
<path d="" fill="#FFB7B5" transform="translate(0,0)"/>
<path d="" fill="#FFB9B9" transform="translate(0,0)"/>
<path d="" fill="#FAB6B8" transform="translate(0,0)"/>
<path d="" fill="#FEBBBE" transform="translate(0,0)"/>
<path d="" fill="#FDB8B5" transform="translate(0,0)"/>
<path d="" fill="#FDB9BB" transform="translate(0,0)"/>
<path d="" fill="#FFB8B7" transform="translate(0,0)"/>
<path d="" fill="#FCB9BE" transform="translate(0,0)"/>
<path d="" fill="#FFB7B7" transform="translate(0,0)"/>
<path d="" fill="#FBB6B7" transform="translate(0,0)"/>
<path d="" fill="#FEBABC" transform="translate(0,0)"/>
<path d="" fill="#FBB7B9" transform="translate(0,0)"/>
<path d="" fill="#FDBBB9" transform="translate(0,0)"/>
<path d="" fill="#FDB8B8" transform="translate(0,0)"/>
<path d="" fill="#FFBABC" transform="translate(0,0)"/>
<path d="" fill="#FAB9BA" transform="translate(0,0)"/>
<path d="" fill="#FBB7B7" transform="translate(0,0)"/>
<path d="" fill="#FAB7B7" transform="translate(0,0)"/>
<path d="" fill="#F9B5B7" transform="translate(0,0)"/>
<path d="" fill="#FBB7BA" transform="translate(0,0)"/>
<path d="" fill="#FBB3B5" transform="translate(0,0)"/>
<path d="" fill="#FBB8B9" transform="translate(0,0)"/>
<path d="" fill="#FAB6B8" transform="translate(0,0)"/>
<path d="" fill="#F8B7B8" transform="translate(0,0)"/>
<path d="" fill="#F9B8B9" transform="translate(0,0)"/>
<path d="" fill="#F9B6B6" transform="translate(0,0)"/>
<path d="" fill="#F7B6B7" transform="translate(0,0)"/>
<path d="" fill="#F5B1B3" transform="translate(0,0)"/>
<path d="" fill="#F5B4B5" transform="translate(0,0)"/>
<path d="" fill="#F7AFAE" transform="translate(0,0)"/>
<path d="" fill="#F1B2B1" transform="translate(0,0)"/>
<path d="" fill="#F4B2B5" transform="translate(0,0)"/>
<path d="" fill="#EFB0B1" transform="translate(0,0)"/>
<path d="" fill="#F3AFAF" transform="translate(0,0)"/>
<path d="" fill="#F1B1B4" transform="translate(0,0)"/>
<path d="" fill="#F2B4B5" transform="translate(0,0)"/>
<path d="" fill="#F1ADAF" transform="translate(0,0)"/>
<path d="" fill="#F2B4B1" transform="translate(0,0)"/>
</svg>
